ffmpeg started on 2025-06-05 at 19:11:20
Report written to "D:\Convert\FFMetrics\reports\ssim_report-6.txt"
Log level: 32
Command line:
ffmpeg -hide_banner -nostdin -i "G:\\\xc0\xed\xe8\xec\xe5\\\xce\xed\xe3\xee\xe8\xed\xe3\xe8\\!_36_\xce\xf1\xe5\xed\xfc_2024\\DreamCast\\\xca\xee\xec\xef\xe0\xed\xe8\xff \xab\xcc\xe0\xe3\xe8-\xcb\xfe\xec\xfc\xe5\xf0\xbb\\[DC] Kabushikigaisha Magilumiere - 06_Telegram_HEVC.mkv" -i "G:\\\xc0\xed\xe8\xec\xe5\\\xce\xed\xe3\xee\xe8\xed\xe3\xe8\\!_36_\xce\xf1\xe5\xed\xfc_2024\\DreamCast\\\xca\xee\xec\xef\xe0\xed\xe8\xff \xab\xcc\xe0\xe3\xe8-\xcb\xfe\xec\xfc\xe5\xf0\xbb\\[DC] Kabushikigaisha Magilumiere - 06_Telegram.mp4" -lavfi "[0:v]settb=AVTB,setpts=PTS-STARTPTS,format=pix_fmts=yuv420p10,fps=24000/1001,scale=1920:1080:flags=bicubic[main];[1:v]settb=AVTB,setpts=PTS-STARTPTS,format=pix_fmts=yuv420p,fps=24000/1001,scale=1920:1080:flags=bicubic[ref];[main][ref]ssim=eof_action=endall:stats_file='D\\:/Convert/FFMetrics/logs/ssim_logfile-6.txt'" -f null -
Input #0, matroska,webm, from 'G:\Аниме\Онгоинги\!_36_Осень_2024\DreamCast\Компания «Маги-Люмьер»\[DC] Kabushikigaisha Magilumiere - 06_Telegram_HEVC.mkv':
  Metadata:
    COMPATIBLE_BRANDS: isomiso2avc1mp41
    MAJOR_BRAND     : isom
    MINOR_VERSION   : 512
    ENCODER         : Lavf61.7.100
  Duration: 00:24:06.61, start: -0.021000, bitrate: 1929 kb/s
  Stream #0:0: Video: hevc (Main 10), yuv420p10le(tv, bt709, progressive), 1920x1080 [SAR 1:1 DAR 16:9], 23.98 fps, 23.98 tbr, 1k tbn (default)
      Metadata:
        HANDLER_NAME    : VideoHandler
        VENDOR_ID       : [0][0][0][0]
        ENCODER         : Lavc61.19.100 libx265
        BPS             : 1731737
        DURATION        : 00:24:06.528708333
        NUMBER_OF_FRAMES: 34682
        NUMBER_OF_BYTES : 313125805
        _STATISTICS_WRITING_APP: mkvpropedit v66.0.0 ('Josie') 64-bit
        _STATISTICS_WRITING_DATE_UTC: 2025-05-30 18:06:59
        _STATISTICS_TAGS: BPS DURATION NUMBER_OF_FRAMES NUMBER_OF_BYTES
  Stream #0:1: Audio: aac (LC), 48000 Hz, stereo, fltp (default)
      Metadata:
        HANDLER_NAME    : SoundHandler
        VENDOR_ID       : [0][0][0][0]
        ENCODER         : Lavc61.19.100 aac
        BPS             : 194071
        DURATION        : 00:24:06.613000000
        NUMBER_OF_FRAMES: 67811
        NUMBER_OF_BYTES : 35093300
        _STATISTICS_WRITING_APP: mkvpropedit v66.0.0 ('Josie') 64-bit
        _STATISTICS_WRITING_DATE_UTC: 2025-05-30 18:06:59
        _STATISTICS_TAGS: BPS DURATION NUMBER_OF_FRAMES NUMBER_OF_BYTES
Input #1, mov,mp4,m4a,3gp,3g2,mj2, from 'G:\Аниме\Онгоинги\!_36_Осень_2024\DreamCast\Компания «Маги-Люмьер»\[DC] Kabushikigaisha Magilumiere - 06_Telegram.mp4':
  Metadata:
    major_brand     : isom
    minor_version   : 512
    compatible_brands: isomiso2avc1mp41
    encoder         : Lavf61.1.100
  Duration: 00:24:06.59, start: 0.000000, bitrate: 3754 kb/s
  Stream #1:0[0x1](und): Video: h264 (High) (avc1 / 0x31637661), yuv420p(tv, bt709, progressive), 1920x1080 [SAR 1:1 DAR 16:9], 3607 kb/s, 23.98 fps, 23.98 tbr, 24k tbn (default)
      Metadata:
        handler_name    : VideoHandler
        vendor_id       : [0][0][0][0]
        encoder         : Lavc61.3.100 h264_qsv
  Stream #1:1[0x2](und): Audio: aac (HE-AACv2) (mp4a / 0x6134706D), 48000 Hz, stereo, fltp, 144 kb/s (default)
      Metadata:
        handler_name    : SoundHandler
        vendor_id       : [0][0][0][0]
Stream mapping:
  Stream #0:0 (hevc) -> settb:default
  Stream #1:0 (h264) -> settb:default
  ssim:default -> Stream #0:0 (wrapped_avframe)
  Stream #0:1 -> #0:1 (aac (native) -> pcm_s16le (native))
Output #0, null, to 'pipe:':
  Metadata:
    COMPATIBLE_BRANDS: isomiso2avc1mp41
    MAJOR_BRAND     : isom
    MINOR_VERSION   : 512
    encoder         : Lavf61.7.100
  Stream #0:0: Video: wrapped_avframe, yuv420p10le(tv, bt709, progressive), 1920x1080 [SAR 1:1 DAR 16:9], q=2-31, 200 kb/s, 23.98 fps, 23.98 tbn
      Metadata:
        encoder         : Lavc61.19.100 wrapped_avframe
  Stream #0:1: Audio: pcm_s16le, 48000 Hz, stereo, s16, 1536 kb/s (default)
      Metadata:
        HANDLER_NAME    : SoundHandler
        VENDOR_ID       : [0][0][0][0]
        _STATISTICS_TAGS: BPS DURATION NUMBER_OF_FRAMES NUMBER_OF_BYTES
        BPS             : 194071
        DURATION        : 00:24:06.613000000
        NUMBER_OF_FRAMES: 67811
        NUMBER_OF_BYTES : 35093300
        _STATISTICS_WRITING_APP: mkvpropedit v66.0.0 ('Josie') 64-bit
        _STATISTICS_WRITING_DATE_UTC: 2025-05-30 18:06:59
        encoder         : Lavc61.19.100 pcm_s16le
frame=  175 fps=0.0 q=-0.0 size=N/A time=00:00:07.29 bitrate=N/A speed=14.3x    frame=  397 fps=390 q=-0.0 size=N/A time=00:00:16.55 bitrate=N/A speed=16.3x    frame=  604 fps=392 q=-0.0 size=N/A time=00:00:25.19 bitrate=N/A speed=16.4x    frame=  796 fps=386 q=-0.0 size=N/A time=00:00:33.19 bitrate=N/A speed=16.1x    frame= 1013 fps=394 q=-0.0 size=N/A time=00:00:42.25 bitrate=N/A speed=16.4x    frame= 1175 fps=381 q=-0.0 size=N/A time=00:00:49.00 bitrate=N/A speed=15.9x    frame= 1353 fps=375 q=-0.0 size=N/A time=00:00:56.43 bitrate=N/A speed=15.6x    frame= 1505 fps=366 q=-0.0 size=N/A time=00:01:02.77 bitrate=N/A speed=15.2x    frame= 1709 fps=368 q=-0.0 size=N/A time=00:01:11.27 bitrate=N/A speed=15.4x    frame= 1913 fps=372 q=-0.0 size=N/A time=00:01:19.78 bitrate=N/A speed=15.5x    frame= 2122 fps=374 q=-0.0 size=N/A time=00:01:28.50 bitrate=N/A speed=15.6x    frame= 2326 fps=376 q=-0.0 size=N/A time=00:01:37.01 bitrate=N/A speed=15.7x    frame= 2468 fps=369 q=-0.0 size=N/A time=00:01:42.93 bitrate=N/A speed=15.4x    frame= 2627 fps=364 q=-0.0 size=N/A time=00:01:49.56 bitrate=N/A speed=15.2x    frame= 2825 fps=366 q=-0.0 size=N/A time=00:01:57.82 bitrate=N/A speed=15.3x    frame= 3020 fps=366 q=-0.0 size=N/A time=00:02:05.95 bitrate=N/A speed=15.3x    frame= 3232 fps=369 q=-0.0 size=N/A time=00:02:14.80 bitrate=N/A speed=15.4x    frame= 3442 fps=371 q=-0.0 size=N/A time=00:02:23.56 bitrate=N/A speed=15.5x    frame= 3669 fps=375 q=-0.0 size=N/A time=00:02:33.02 bitrate=N/A speed=15.6x    frame= 3879 fps=376 q=-0.0 size=N/A time=00:02:41.78 bitrate=N/A speed=15.7x    frame= 4111 fps=380 q=-0.0 size=N/A time=00:02:51.46 bitrate=N/A speed=15.9x    frame= 4368 fps=385 q=-0.0 size=N/A time=00:03:02.18 bitrate=N/A speed=16.1x    frame= 4626 fps=390 q=-0.0 size=N/A time=00:03:12.94 bitrate=N/A speed=16.3x    frame= 4862 fps=393 q=-0.0 size=N/A time=00:03:22.78 bitrate=N/A speed=16.4x    frame= 5107 fps=396 q=-0.0 size=N/A time=00:03:33.00 bitrate=N/A speed=16.5x    frame= 5359 fps=400 q=-0.0 size=N/A time=00:03:43.51 bitrate=N/A speed=16.7x    frame= 5622 fps=404 q=-0.0 size=N/A time=00:03:54.48 bitrate=N/A speed=16.9x    frame= 5867 fps=406 q=-0.0 size=N/A time=00:04:04.70 bitrate=N/A speed=  17x    frame= 6123 fps=409 q=-0.0 size=N/A time=00:04:15.38 bitrate=N/A speed=17.1x    frame= 6344 fps=410 q=-0.0 size=N/A time=00:04:24.59 bitrate=N/A speed=17.1x    frame= 6579 fps=412 q=-0.0 size=N/A time=00:04:34.39 bitrate=N/A speed=17.2x    frame= 6817 fps=413 q=-0.0 size=N/A time=00:04:44.32 bitrate=N/A speed=17.2x    frame= 7046 fps=414 q=-0.0 size=N/A time=00:04:53.87 bitrate=N/A speed=17.3x    frame= 7311 fps=417 q=-0.0 size=N/A time=00:05:04.92 bitrate=N/A speed=17.4x    frame= 7528 fps=417 q=-0.0 size=N/A time=00:05:13.98 bitrate=N/A speed=17.4x    frame= 7779 fps=419 q=-0.0 size=N/A time=00:05:24.44 bitrate=N/A speed=17.5x    frame= 8027 fps=420 q=-0.0 size=N/A time=00:05:34.79 bitrate=N/A speed=17.5x    frame= 8279 fps=422 q=-0.0 size=N/A time=00:05:45.30 bitrate=N/A speed=17.6x    frame= 8524 fps=424 q=-0.0 size=N/A time=00:05:55.52 bitrate=N/A speed=17.7x    frame= 8726 fps=423 q=-0.0 size=N/A time=00:06:03.94 bitrate=N/A speed=17.6x    frame= 8922 fps=422 q=-0.0 size=N/A time=00:06:12.12 bitrate=N/A speed=17.6x    frame= 9161 fps=423 q=-0.0 size=N/A time=00:06:22.09 bitrate=N/A speed=17.6x    frame= 9421 fps=425 q=-0.0 size=N/A time=00:06:32.93 bitrate=N/A speed=17.7x    frame= 9685 fps=427 q=-0.0 size=N/A time=00:06:43.94 bitrate=N/A speed=17.8x    frame= 9948 fps=429 q=-0.0 size=N/A time=00:06:54.91 bitrate=N/A speed=17.9x    frame=10204 fps=430 q=-0.0 size=N/A time=00:07:05.59 bitrate=N/A speed=17.9x    frame=10452 fps=431 q=-0.0 size=N/A time=00:07:15.93 bitrate=N/A speed=  18x    frame=10714 fps=433 q=-0.0 size=N/A time=00:07:26.86 bitrate=N/A speed=  18x    frame=10957 fps=434 q=-0.0 size=N/A time=00:07:36.99 bitrate=N/A speed=18.1x    frame=11224 fps=435 q=-0.0 size=N/A time=00:07:48.13 bitrate=N/A speed=18.2x    frame=11396 fps=433 q=-0.0 size=N/A time=00:07:55.30 bitrate=N/A speed=18.1x    frame=11591 fps=432 q=-0.0 size=N/A time=00:08:03.44 bitrate=N/A speed=  18x    frame=11772 fps=431 q=-0.0 size=N/A time=00:08:10.99 bitrate=N/A speed=  18x    frame=11954 fps=429 q=-0.0 size=N/A time=00:08:18.58 bitrate=N/A speed=17.9x    frame=12129 fps=427 q=-0.0 size=N/A time=00:08:25.88 bitrate=N/A speed=17.8x    frame=12303 fps=426 q=-0.0 size=N/A time=00:08:33.13 bitrate=N/A speed=17.8x    frame=12481 fps=425 q=-0.0 size=N/A time=00:08:40.56 bitrate=N/A speed=17.7x    frame=12688 fps=424 q=-0.0 size=N/A time=00:08:49.19 bitrate=N/A speed=17.7x    frame=12940 fps=425 q=-0.0 size=N/A time=00:08:59.70 bitrate=N/A speed=17.7x    frame=13137 fps=425 q=-0.0 size=N/A time=00:09:07.92 bitrate=N/A speed=17.7x    frame=13326 fps=423 q=-0.0 size=N/A time=00:09:15.80 bitrate=N/A speed=17.7x    frame=13502 fps=422 q=-0.0 size=N/A time=00:09:23.14 bitrate=N/A speed=17.6x    frame=13670 fps=421 q=-0.0 size=N/A time=00:09:30.15 bitrate=N/A speed=17.5x    frame=13868 fps=420 q=-0.0 size=N/A time=00:09:38.41 bitrate=N/A speed=17.5x    frame=14059 fps=419 q=-0.0 size=N/A time=00:09:46.37 bitrate=N/A speed=17.5x    frame=14236 fps=418 q=-0.0 size=N/A time=00:09:53.75 bitrate=N/A speed=17.4x    frame=14455 fps=418 q=-0.0 size=N/A time=00:10:02.89 bitrate=N/A speed=17.4x    frame=14653 fps=418 q=-0.0 size=N/A time=00:10:11.15 bitrate=N/A speed=17.4x    frame=14863 fps=418 q=-0.0 size=N/A time=00:10:19.91 bitrate=N/A speed=17.4x    frame=15044 fps=417 q=-0.0 size=N/A time=00:10:27.46 bitrate=N/A speed=17.4x    frame=15243 fps=416 q=-0.0 size=N/A time=00:10:35.76 bitrate=N/A speed=17.4x    frame=15457 fps=416 q=-0.0 size=N/A time=00:10:44.68 bitrate=N/A speed=17.4x    frame=15652 fps=416 q=-0.0 size=N/A time=00:10:52.81 bitrate=N/A speed=17.3x    frame=15889 fps=416 q=-0.0 size=N/A time=00:11:02.70 bitrate=N/A speed=17.4x    frame=16129 fps=417 q=-0.0 size=N/A time=00:11:12.71 bitrate=N/A speed=17.4x    frame=16340 fps=417 q=-0.0 size=N/A time=00:11:21.51 bitrate=N/A speed=17.4x    frame=16545 fps=417 q=-0.0 size=N/A time=00:11:30.06 bitrate=N/A speed=17.4x    frame=16763 fps=417 q=-0.0 size=N/A time=00:11:39.15 bitrate=N/A speed=17.4x    frame=17013 fps=418 q=-0.0 size=N/A time=00:11:49.58 bitrate=N/A speed=17.4x    frame=17257 fps=418 q=-0.0 size=N/A time=00:11:59.76 bitrate=N/A speed=17.4x    frame=17502 fps=419 q=-0.0 size=N/A time=00:12:09.97 bitrate=N/A speed=17.5x    frame=17742 fps=420 q=-0.0 size=N/A time=00:12:19.98 bitrate=N/A speed=17.5x    frame=18006 fps=421 q=-0.0 size=N/A time=00:12:31.00 bitrate=N/A speed=17.5x    frame=18213 fps=420 q=-0.0 size=N/A time=00:12:39.63 bitrate=N/A speed=17.5x    frame=18463 fps=421 q=-0.0 size=N/A time=00:12:50.06 bitrate=N/A speed=17.6x    frame=18728 fps=422 q=-0.0 size=N/A time=00:13:01.11 bitrate=N/A speed=17.6x    frame=18958 fps=423 q=-0.0 size=N/A time=00:13:10.70 bitrate=N/A speed=17.6x    frame=19212 fps=423 q=-0.0 size=N/A time=00:13:21.30 bitrate=N/A speed=17.7x    frame=19467 fps=424 q=-0.0 size=N/A time=00:13:31.93 bitrate=N/A speed=17.7x    frame=19689 fps=424 q=-0.0 size=N/A time=00:13:41.19 bitrate=N/A speed=17.7x    frame=19914 fps=424 q=-0.0 size=N/A time=00:13:50.57 bitrate=N/A speed=17.7x    frame=20170 fps=425 q=-0.0 size=N/A time=00:14:01.25 bitrate=N/A speed=17.7x    frame=20396 fps=425 q=-0.0 size=N/A time=00:14:10.68 bitrate=N/A speed=17.7x    frame=20662 fps=426 q=-0.0 size=N/A time=00:14:21.77 bitrate=N/A speed=17.8x    frame=20928 fps=427 q=-0.0 size=N/A time=00:14:32.87 bitrate=N/A speed=17.8x    frame=21159 fps=427 q=-0.0 size=N/A time=00:14:42.50 bitrate=N/A speed=17.8x    frame=21346 fps=427 q=-0.0 size=N/A time=00:14:50.30 bitrate=N/A speed=17.8x    frame=21599 fps=427 q=-0.0 size=N/A time=00:15:00.85 bitrate=N/A speed=17.8x    frame=21855 fps=428 q=-0.0 size=N/A time=00:15:11.53 bitrate=N/A speed=17.8x    frame=22129 fps=429 q=-0.0 size=N/A time=00:15:22.96 bitrate=N/A speed=17.9x    frame=22375 fps=429 q=-0.0 size=N/A time=00:15:33.22 bitrate=N/A speed=17.9x    frame=22623 fps=430 q=-0.0 size=N/A time=00:15:43.56 bitrate=N/A speed=17.9x    frame=22860 fps=430 q=-0.0 size=N/A time=00:15:53.45 bitrate=N/A speed=17.9x    frame=23139 fps=431 q=-0.0 size=N/A time=00:16:05.08 bitrate=N/A speed=  18x    frame=23413 fps=432 q=-0.0 size=N/A time=00:16:16.51 bitrate=N/A speed=  18x    frame=23643 fps=432 q=-0.0 size=N/A time=00:16:26.11 bitrate=N/A speed=  18x    frame=23873 fps=432 q=-0.0 size=N/A time=00:16:35.70 bitrate=N/A speed=  18x    frame=24088 fps=432 q=-0.0 size=N/A time=00:16:44.67 bitrate=N/A speed=  18x    frame=24276 fps=432 q=-0.0 size=N/A time=00:16:52.51 bitrate=N/A speed=  18x    frame=24487 fps=431 q=-0.0 size=N/A time=00:17:01.31 bitrate=N/A speed=  18x    frame=24669 fps=431 q=-0.0 size=N/A time=00:17:08.90 bitrate=N/A speed=  18x    frame=24858 fps=430 q=-0.0 size=N/A time=00:17:16.78 bitrate=N/A speed=17.9x    frame=25049 fps=429 q=-0.0 size=N/A time=00:17:24.75 bitrate=N/A speed=17.9x    frame=25266 fps=429 q=-0.0 size=N/A time=00:17:33.80 bitrate=N/A speed=17.9x    frame=25478 fps=429 q=-0.0 size=N/A time=00:17:42.64 bitrate=N/A speed=17.9x    frame=25710 fps=429 q=-0.0 size=N/A time=00:17:52.32 bitrate=N/A speed=17.9x    frame=25933 fps=429 q=-0.0 size=N/A time=00:18:01.62 bitrate=N/A speed=17.9x    frame=26128 fps=429 q=-0.0 size=N/A time=00:18:09.75 bitrate=N/A speed=17.9x    frame=26353 fps=429 q=-0.0 size=N/A time=00:18:19.13 bitrate=N/A speed=17.9x    frame=26553 fps=429 q=-0.0 size=N/A time=00:18:27.48 bitrate=N/A speed=17.9x    frame=26732 fps=428 q=-0.0 size=N/A time=00:18:34.94 bitrate=N/A speed=17.9x    frame=26945 fps=428 q=-0.0 size=N/A time=00:18:43.83 bitrate=N/A speed=17.9x    frame=27136 fps=427 q=-0.0 size=N/A time=00:18:51.79 bitrate=N/A speed=17.8x    frame=27330 fps=427 q=-0.0 size=N/A time=00:18:59.88 bitrate=N/A speed=17.8x    frame=27550 fps=427 q=-0.0 size=N/A time=00:19:09.06 bitrate=N/A speed=17.8x    frame=27789 fps=427 q=-0.0 size=N/A time=00:19:19.03 bitrate=N/A speed=17.8x    frame=28018 fps=427 q=-0.0 size=N/A time=00:19:28.58 bitrate=N/A speed=17.8x    frame=28199 fps=427 q=-0.0 size=N/A time=00:19:36.13 bitrate=N/A speed=17.8x    frame=28422 fps=427 q=-0.0 size=N/A time=00:19:45.43 bitrate=N/A speed=17.8x    frame=28668 fps=427 q=-0.0 size=N/A time=00:19:55.69 bitrate=N/A speed=17.8x    frame=28886 fps=427 q=-0.0 size=N/A time=00:20:04.78 bitrate=N/A speed=17.8x    frame=29049 fps=426 q=-0.0 size=N/A time=00:20:11.58 bitrate=N/A speed=17.8x    frame=29237 fps=426 q=-0.0 size=N/A time=00:20:19.42 bitrate=N/A speed=17.8x    frame=29446 fps=426 q=-0.0 size=N/A time=00:20:28.14 bitrate=N/A speed=17.8x    frame=29607 fps=425 q=-0.0 size=N/A time=00:20:34.85 bitrate=N/A speed=17.7x    frame=29791 fps=425 q=-0.0 size=N/A time=00:20:42.53 bitrate=N/A speed=17.7x    frame=29989 fps=424 q=-0.0 size=N/A time=00:20:50.79 bitrate=N/A speed=17.7x    frame=30163 fps=424 q=-0.0 size=N/A time=00:20:58.04 bitrate=N/A speed=17.7x    frame=30394 fps=424 q=-0.0 size=N/A time=00:21:07.68 bitrate=N/A speed=17.7x    frame=30642 fps=424 q=-0.0 size=N/A time=00:21:18.02 bitrate=N/A speed=17.7x    frame=30848 fps=424 q=-0.0 size=N/A time=00:21:26.61 bitrate=N/A speed=17.7x    frame=31058 fps=424 q=-0.0 size=N/A time=00:21:35.37 bitrate=N/A speed=17.7x    frame=31284 fps=424 q=-0.0 size=N/A time=00:21:44.80 bitrate=N/A speed=17.7x    frame=31477 fps=424 q=-0.0 size=N/A time=00:21:52.85 bitrate=N/A speed=17.7x    frame=31601 fps=422 q=-0.0 size=N/A time=00:21:58.02 bitrate=N/A speed=17.6x    frame=31817 fps=422 q=-0.0 size=N/A time=00:22:07.03 bitrate=N/A speed=17.6x    frame=32021 fps=422 q=-0.0 size=N/A time=00:22:15.54 bitrate=N/A speed=17.6x    frame=32183 fps=421 q=-0.0 size=N/A time=00:22:22.29 bitrate=N/A speed=17.6x    frame=32299 fps=420 q=-0.0 size=N/A time=00:22:27.13 bitrate=N/A speed=17.5x    frame=32470 fps=419 q=-0.0 size=N/A time=00:22:34.26 bitrate=N/A speed=17.5x    frame=32660 fps=419 q=-0.0 size=N/A time=00:22:42.19 bitrate=N/A speed=17.5x    frame=32899 fps=419 q=-0.0 size=N/A time=00:22:52.16 bitrate=N/A speed=17.5x    frame=33107 fps=419 q=-0.0 size=N/A time=00:23:00.83 bitrate=N/A speed=17.5x    frame=33325 fps=419 q=-0.0 size=N/A time=00:23:09.93 bitrate=N/A speed=17.5x    frame=33569 fps=420 q=-0.0 size=N/A time=00:23:20.10 bitrate=N/A speed=17.5x    frame=33802 fps=420 q=-0.0 size=N/A time=00:23:29.82 bitrate=N/A speed=17.5x    frame=34033 fps=420 q=-0.0 size=N/A time=00:23:39.45 bitrate=N/A speed=17.5x    frame=34298 fps=421 q=-0.0 size=N/A time=00:23:50.51 bitrate=N/A speed=17.5x    frame=34559 fps=421 q=-0.0 size=N/A time=00:24:01.39 bitrate=N/A speed=17.6x    [Parsed_ssim_10 @ 00000296b78e69c0] SSIM Y:0.993364 (21.780640) U:0.993245 (21.703896) V:0.992848 (21.456019) All:0.993258 (21.712103)
[out#0/null @ 00000296b4fd4780] video:14902KiB audio:271244KiB subtitle:0KiB other streams:0KiB global headers:0KiB muxing overhead: unknown
frame=34682 fps=421 q=-0.0 Lsize=N/A time=00:24:06.52 bitrate=N/A speed=17.6x    
